<svg width="13" height="20" viewBox="0 0 15 30" xmlns="http://www.w3.org/2000/svg"><path d="M5.793 2.615C6.98 1.24 8.613.45 10.333.45h3.5a.55.55 0 01.55.55v5.393a.55.55 0 01-.55.55h-3.5a.545.545 0 00-.409.205.913.913 0 00-.207.593v3.495h4.116a.55.55 0 01.538.666l-1.167 5.393a.55.55 0 01-.537.434h-2.95v10.236a.55.55 0 01-.55.55H4.5a.55.55 0 01-.55-.55V17.729H1a.55.55 0 01-.55-.55v-5.393a.55.55 0 01.55-.55h2.95V7.741c0-1.91.656-3.755 1.843-5.126zm4.54-1.065c-1.373 0-2.71.63-3.709 1.784-1 1.157-1.574 2.742-1.574 4.407v4.045a.55.55 0 01-.55.55H1.55v4.293H4.5a.55.55 0 01.55.55v10.236h3.567V17.179a.55.55 0 01.55-.55h3.056l.929-4.293H9.167a.55.55 0 01-.55-.55V7.741c0-.48.164-.953.475-1.313a1.643 1.643 0 011.241-.585h2.95V1.55h-2.95z"/></svg>