<svg width="13" height="20" viewBox="0 0 15 30" xmlns="http://www.w3.org/2000/svg">
<path d="M5.79259 2.61453C6.9815 1.24057 8.61253 0.449951 10.3333 0.449951H13.8333C14.137 0.449951 14.3833 0.696195 14.3833 0.999951V6.39297C14.3833 6.69672 14.137 6.94297 13.8333 6.94297H10.3333C10.1975 6.94297 10.0481 7.00463 9.92423 7.14775C9.79823 7.29337 9.71662 7.50588 9.71662 7.74122V11.236H13.8333C13.9996 11.236 14.1569 11.3112 14.2613 11.4406C14.3658 11.57 14.406 11.7397 14.3709 11.9023L13.2042 17.2953C13.1494 17.5484 12.9256 17.729 12.6666 17.729H9.71662V27.965C9.71662 28.2688 9.47038 28.515 9.16662 28.515H4.49995C4.19619 28.515 3.94995 28.2688 3.94995 27.965V17.729H0.999951C0.696195 17.729 0.449951 17.4828 0.449951 17.179V11.786C0.449951 11.4822 0.696195 11.236 0.999951 11.236H3.94995V7.74122C3.94995 5.83109 4.60584 3.98599 5.79259 2.61453ZM10.3333 1.54995C8.95985 1.54995 7.62342 2.17981 6.6244 3.33431C5.62322 4.49132 5.04995 6.07556 5.04995 7.74122V11.786C5.04995 12.0897 4.80371 12.336 4.49995 12.336H1.54995V16.629H4.49995C4.80371 16.629 5.04995 16.8752 5.04995 17.179V27.415H8.61662V17.179C8.61662 16.8752 8.86286 16.629 9.16662 16.629H12.2229L13.1516 12.336H9.16662C8.86286 12.336 8.61662 12.0897 8.61662 11.786V7.74122C8.61662 7.26141 8.78084 6.78804 9.09242 6.42797C9.40616 6.0654 9.8502 5.84297 10.3333 5.84297H13.2833V1.54995H10.3333Z"/>
</svg>
